<?xml version="1.0" encoding="UTF-8"?>
<svg xmlns="http://www.w3.org/2000/svg" width="114" height="27" viewBox="0 0 114 27" fill="none">
  <path d="M4.12479 0.242C5.18879 0.242 6.10812 0.442666 6.88279 0.843999C7.66679 1.236 8.26412 1.80067 8.67479 2.538C9.09479 3.27533 9.30479 4.14333 9.30479 5.142C9.30479 6.14067 9.09479 7.00867 8.67479 7.746C8.26412 8.474 7.66679 9.034 6.88279 9.426C6.10812 9.80867 5.18879 10 4.12479 10H1.08679V0.242H4.12479ZM4.12479 8.95C5.38479 8.95 6.34612 8.61867 7.00879 7.956C7.67146 7.284 8.00279 6.346 8.00279 5.142C8.00279 3.92867 7.66679 2.98133 6.99479 2.3C6.33212 1.61867 5.37546 1.278 4.12479 1.278H2.36079V8.95H4.12479ZM16.7532 7.83H12.4972L11.7132 10H10.3692L13.8972 0.298H15.3672L18.8812 10H17.5372L16.7532 7.83ZM16.3892 6.794L14.6252 1.866L12.8612 6.794H16.3892ZM28.4828 0.242L24.8008 10H23.3308L19.6488 0.242H21.0068L24.0728 8.656L27.1388 0.242H28.4828ZM31.1538 0.242V10H29.8798V0.242H31.1538ZM36.3631 0.242C37.4271 0.242 38.3464 0.442666 39.1211 0.843999C39.9051 1.236 40.5024 1.80067 40.9131 2.538C41.3331 3.27533 41.5431 4.14333 41.5431 5.142C41.5431 6.14067 41.3331 7.00867 40.9131 7.746C40.5024 8.474 39.9051 9.034 39.1211 9.426C38.3464 9.80867 37.4271 10 36.3631 10H33.3251V0.242H36.3631ZM36.3631 8.95C37.6231 8.95 38.5844 8.61867 39.2471 7.956C39.9097 7.284 40.2411 6.346 40.2411 5.142C40.2411 3.92867 39.9051 2.98133 39.2331 2.3C38.5704 1.61867 37.6137 1.278 36.3631 1.278H34.5991V8.95H36.3631ZM60.2699 0.172L57.7079 10H54.8099L53.2419 3.532L51.6179 10H48.7199L46.2279 0.172H48.7899L50.2039 7.326L51.9539 0.172H54.5859L56.2659 7.326L57.6939 0.172H60.2699ZM63.8645 0.172V10H61.4705V0.172H63.8645ZM67.9934 8.152H71.1294V10H65.5994V0.172H67.9934V8.152ZM74.6653 8.152H77.8013V10H72.2713V0.172H74.6653V8.152ZM81.3372 0.172V10H78.9432V0.172H81.3372ZM89.1901 8.264H85.5221L84.9341 10H82.4281L85.9841 0.172H88.7561L92.3121 10H89.7781L89.1901 8.264ZM88.5741 6.416L87.3561 2.818L86.1521 6.416H88.5741ZM104.524 0.172V10H102.13V4.106L99.9324 10H98.0004L95.7884 4.092V10H93.3944V0.172H96.2224L98.9804 6.976L101.71 0.172H104.524ZM109.802 10.098C109.083 10.098 108.439 9.98133 107.87 9.748C107.301 9.51467 106.843 9.16933 106.498 8.712C106.162 8.25467 105.985 7.704 105.966 7.06H108.514C108.551 7.424 108.677 7.704 108.892 7.9C109.107 8.08667 109.387 8.18 109.732 8.18C110.087 8.18 110.367 8.10067 110.572 7.942C110.777 7.774 110.88 7.54533 110.88 7.256C110.88 7.01333 110.796 6.81267 110.628 6.654C110.469 6.49533 110.269 6.36467 110.026 6.262C109.793 6.15933 109.457 6.04267 109.018 5.912C108.383 5.716 107.865 5.52 107.464 5.324C107.063 5.128 106.717 4.83867 106.428 4.456C106.139 4.07333 105.994 3.574 105.994 2.958C105.994 2.04333 106.325 1.32933 106.988 0.816C107.651 0.293333 108.514 0.0319998 109.578 0.0319998C110.661 0.0319998 111.533 0.293333 112.196 0.816C112.859 1.32933 113.213 2.048 113.26 2.972H110.67C110.651 2.65467 110.535 2.40733 110.32 2.23C110.105 2.04333 109.83 1.95 109.494 1.95C109.205 1.95 108.971 2.02933 108.794 2.188C108.617 2.33733 108.528 2.55667 108.528 2.846C108.528 3.16333 108.677 3.41067 108.976 3.588C109.275 3.76533 109.741 3.95667 110.376 4.162C111.011 4.37667 111.524 4.582 111.916 4.778C112.317 4.974 112.663 5.25867 112.952 5.632C113.241 6.00533 113.386 6.486 113.386 7.074C113.386 7.634 113.241 8.14267 112.952 8.6C112.672 9.05733 112.261 9.42133 111.72 9.692C111.179 9.96267 110.539 10.098 109.802 10.098Z" fill="white"></path>
  <path d="M15.807 18.333V19.147H12.474V21.732H15.18V22.546H12.474V26H11.473V18.333H15.807ZM18.0169 20.951C18.1929 20.6063 18.4423 20.3387 18.7649 20.148C19.0949 19.9573 19.4946 19.862 19.9639 19.862V20.896H19.6999C18.5779 20.896 18.0169 21.5047 18.0169 22.722V26H17.0159V19.972H18.0169V20.951ZM26.6195 22.755C26.6195 22.9457 26.6085 23.1473 26.5865 23.36H21.7685C21.8051 23.954 22.0068 24.4197 22.3735 24.757C22.7475 25.087 23.1985 25.252 23.7265 25.252C24.1591 25.252 24.5185 25.153 24.8045 24.955C25.0978 24.7497 25.3031 24.4783 25.4205 24.141H26.4985C26.3371 24.7203 26.0145 25.1933 25.5305 25.56C25.0465 25.9193 24.4451 26.099 23.7265 26.099C23.1545 26.099 22.6411 25.9707 22.1865 25.714C21.7391 25.4573 21.3871 25.0943 21.1305 24.625C20.8738 24.1483 20.7455 23.5983 20.7455 22.975C20.7455 22.3517 20.8701 21.8053 21.1195 21.336C21.3688 20.8667 21.7171 20.5073 22.1645 20.258C22.6191 20.0013 23.1398 19.873 23.7265 19.873C24.2985 19.873 24.8045 19.9977 25.2445 20.247C25.6845 20.4963 26.0218 20.841 26.2565 21.281C26.4985 21.7137 26.6195 22.205 26.6195 22.755ZM25.5855 22.546C25.5855 22.1647 25.5011 21.8383 25.3325 21.567C25.1638 21.2883 24.9328 21.0793 24.6395 20.94C24.3535 20.7933 24.0345 20.72 23.6825 20.72C23.1765 20.72 22.7438 20.8813 22.3845 21.204C22.0325 21.5267 21.8308 21.974 21.7795 22.546H25.5855ZM33.4408 22.755C33.4408 22.9457 33.4298 23.1473 33.4078 23.36H28.5898C28.6264 23.954 28.8281 24.4197 29.1948 24.757C29.5688 25.087 30.0198 25.252 30.5478 25.252C30.9804 25.252 31.3398 25.153 31.6258 24.955C31.9191 24.7497 32.1244 24.4783 32.2418 24.141H33.3198C33.1584 24.7203 32.8358 25.1933 32.3518 25.56C31.8678 25.9193 31.2664 26.099 30.5478 26.099C29.9758 26.099 29.4624 25.9707 29.0078 25.714C28.5604 25.4573 28.2084 25.0943 27.9518 24.625C27.6951 24.1483 27.5668 23.5983 27.5668 22.975C27.5668 22.3517 27.6914 21.8053 27.9408 21.336C28.1901 20.8667 28.5384 20.5073 28.9858 20.258C29.4404 20.0013 29.9611 19.873 30.5478 19.873C31.1198 19.873 31.6258 19.9977 32.0658 20.247C32.5058 20.4963 32.8431 20.841 33.0778 21.281C33.3198 21.7137 33.4408 22.205 33.4408 22.755ZM32.4068 22.546C32.4068 22.1647 32.3224 21.8383 32.1538 21.567C31.9851 21.2883 31.7541 21.0793 31.4608 20.94C31.1748 20.7933 30.8558 20.72 30.5038 20.72C29.9978 20.72 29.5651 20.8813 29.2058 21.204C28.8538 21.5267 28.6521 21.974 28.6008 22.546H32.4068ZM35.763 17.86V26H34.762V17.86H35.763ZM37.0951 22.964C37.0951 22.348 37.2197 21.809 37.4691 21.347C37.7184 20.8777 38.0594 20.5147 38.4921 20.258C38.9321 20.0013 39.4197 19.873 39.9551 19.873C40.4831 19.873 40.9414 19.9867 41.3301 20.214C41.7187 20.4413 42.0084 20.7273 42.1991 21.072V19.972H43.2111V26H42.1991V24.878C42.0011 25.23 41.7041 25.5233 41.3081 25.758C40.9194 25.9853 40.4647 26.099 39.9441 26.099C39.4087 26.099 38.9247 25.967 38.4921 25.703C38.0594 25.439 37.7184 25.0687 37.4691 24.592C37.2197 24.1153 37.0951 23.5727 37.0951 22.964ZM42.1991 22.975C42.1991 22.5203 42.1074 22.1243 41.9241 21.787C41.7407 21.4497 41.4914 21.193 41.1761 21.017C40.8681 20.8337 40.5271 20.742 40.1531 20.742C39.7791 20.742 39.4381 20.83 39.1301 21.006C38.8221 21.182 38.5764 21.4387 38.3931 21.776C38.2097 22.1133 38.1181 22.5093 38.1181 22.964C38.1181 23.426 38.2097 23.8293 38.3931 24.174C38.5764 24.5113 38.8221 24.7717 39.1301 24.955C39.4381 25.131 39.7791 25.219 40.1531 25.219C40.5271 25.219 40.8681 25.131 41.1761 24.955C41.4914 24.7717 41.7407 24.5113 41.9241 24.174C42.1074 23.8293 42.1991 23.4297 42.1991 22.975ZM47.8397 19.862C48.573 19.862 49.167 20.0857 49.6217 20.533C50.0763 20.973 50.3037 21.611 50.3037 22.447V26H49.3137V22.59C49.3137 21.9887 49.1633 21.5303 48.8627 21.215C48.562 20.8923 48.1513 20.731 47.6307 20.731C47.1027 20.731 46.681 20.896 46.3657 21.226C46.0577 21.556 45.9037 22.0363 45.9037 22.667V26H44.9027V19.972H45.9037V20.83C46.1017 20.522 46.3693 20.2837 46.7067 20.115C47.0513 19.9463 47.429 19.862 47.8397 19.862ZM51.5648 22.975C51.5648 22.3517 51.6895 21.809 51.9388 21.347C52.1881 20.8777 52.5328 20.5147 52.9728 20.258C53.4201 20.0013 53.9298 19.873 54.5018 19.873C55.2425 19.873 55.8511 20.0527 56.3278 20.412C56.8118 20.7713 57.1308 21.27 57.2848 21.908H56.2068C56.1041 21.5413 55.9025 21.2517 55.6018 21.039C55.3085 20.8263 54.9418 20.72 54.5018 20.72C53.9298 20.72 53.4678 20.918 53.1158 21.314C52.7638 21.7027 52.5878 22.2563 52.5878 22.975C52.5878 23.701 52.7638 24.262 53.1158 24.658C53.4678 25.054 53.9298 25.252 54.5018 25.252C54.9418 25.252 55.3085 25.1493 55.6018 24.944C55.8951 24.7387 56.0968 24.4453 56.2068 24.064H57.2848C57.1235 24.68 56.8008 25.175 56.3168 25.549C55.8328 25.9157 55.2278 26.099 54.5018 26.099C53.9298 26.099 53.4201 25.9707 52.9728 25.714C52.5328 25.4573 52.1881 25.0943 51.9388 24.625C51.6895 24.1557 51.5648 23.6057 51.5648 22.975ZM64.1204 22.755C64.1204 22.9457 64.1094 23.1473 64.0874 23.36H59.2694C59.3061 23.954 59.5078 24.4197 59.8744 24.757C60.2484 25.087 60.6994 25.252 61.2274 25.252C61.6601 25.252 62.0194 25.153 62.3054 24.955C62.5988 24.7497 62.8041 24.4783 62.9214 24.141H63.9994C63.8381 24.7203 63.5154 25.1933 63.0314 25.56C62.5474 25.9193 61.9461 26.099 61.2274 26.099C60.6554 26.099 60.1421 25.9707 59.6874 25.714C59.2401 25.4573 58.8881 25.0943 58.6314 24.625C58.3748 24.1483 58.2464 23.5983 58.2464 22.975C58.2464 22.3517 58.3711 21.8053 58.6204 21.336C58.8698 20.8667 59.2181 20.5073 59.6654 20.258C60.1201 20.0013 60.6408 19.873 61.2274 19.873C61.7994 19.873 62.3054 19.9977 62.7454 20.247C63.1854 20.4963 63.5228 20.841 63.7574 21.281C63.9994 21.7137 64.1204 22.205 64.1204 22.755ZM63.0864 22.546C63.0864 22.1647 63.0021 21.8383 62.8334 21.567C62.6648 21.2883 62.4338 21.0793 62.1404 20.94C61.8544 20.7933 61.5354 20.72 61.1834 20.72C60.6774 20.72 60.2448 20.8813 59.8854 21.204C59.5334 21.5267 59.3318 21.974 59.2804 22.546H63.0864ZM73.0933 18.333V19.147H71.0033V26H70.0023V19.147H67.9013V18.333H73.0933ZM75.3265 20.951C75.5025 20.6063 75.7518 20.3387 76.0745 20.148C76.4045 19.9573 76.8042 19.862 77.2735 19.862V20.896H77.0095C75.8875 20.896 75.3265 21.5047 75.3265 22.722V26H74.3255V19.972H75.3265V20.951ZM78.055 22.964C78.055 22.348 78.1797 21.809 78.429 21.347C78.6784 20.8777 79.0194 20.5147 79.452 20.258C79.892 20.0013 80.3797 19.873 80.915 19.873C81.443 19.873 81.9014 19.9867 82.29 20.214C82.6787 20.4413 82.9684 20.7273 83.159 21.072V19.972H84.171V26H83.159V24.878C82.961 25.23 82.664 25.5233 82.268 25.758C81.8794 25.9853 81.4247 26.099 80.904 26.099C80.3687 26.099 79.8847 25.967 79.452 25.703C79.0194 25.439 78.6784 25.0687 78.429 24.592C78.1797 24.1153 78.055 23.5727 78.055 22.964ZM83.159 22.975C83.159 22.5203 83.0674 22.1243 82.884 21.787C82.7007 21.4497 82.4514 21.193 82.136 21.017C81.828 20.8337 81.487 20.742 81.113 20.742C80.739 20.742 80.398 20.83 80.09 21.006C79.782 21.182 79.5364 21.4387 79.353 21.776C79.1697 22.1133 79.078 22.5093 79.078 22.964C79.078 23.426 79.1697 23.8293 79.353 24.174C79.5364 24.5113 79.782 24.7717 80.09 24.955C80.398 25.131 80.739 25.219 81.113 25.219C81.487 25.219 81.828 25.131 82.136 24.955C82.4514 24.7717 82.7007 24.5113 82.884 24.174C83.0674 23.8293 83.159 23.4297 83.159 22.975ZM85.4886 22.964C85.4886 22.348 85.6133 21.809 85.8626 21.347C86.112 20.8777 86.453 20.5147 86.8856 20.258C87.3256 20.0013 87.817 19.873 88.3596 19.873C88.829 19.873 89.2653 19.983 89.6686 20.203C90.072 20.4157 90.38 20.698 90.5926 21.05V17.86H91.6046V26H90.5926V24.867C90.3946 25.2263 90.1013 25.5233 89.7126 25.758C89.324 25.9853 88.8693 26.099 88.3486 26.099C87.8133 26.099 87.3256 25.967 86.8856 25.703C86.453 25.439 86.112 25.0687 85.8626 24.592C85.6133 24.1153 85.4886 23.5727 85.4886 22.964ZM90.5926 22.975C90.5926 22.5203 90.501 22.1243 90.3176 21.787C90.1343 21.4497 89.885 21.193 89.5696 21.017C89.2616 20.8337 88.9206 20.742 88.5466 20.742C88.1726 20.742 87.8316 20.83 87.5236 21.006C87.2156 21.182 86.97 21.4387 86.7866 21.776C86.6033 22.1133 86.5116 22.5093 86.5116 22.964C86.5116 23.426 86.6033 23.8293 86.7866 24.174C86.97 24.5113 87.2156 24.7717 87.5236 24.955C87.8316 25.131 88.1726 25.219 88.5466 25.219C88.9206 25.219 89.2616 25.131 89.5696 24.955C89.885 24.7717 90.1343 24.5113 90.3176 24.174C90.501 23.8293 90.5926 23.4297 90.5926 22.975ZM98.7962 22.755C98.7962 22.9457 98.7852 23.1473 98.7632 23.36H93.9452C93.9819 23.954 94.1836 24.4197 94.5502 24.757C94.9242 25.087 95.3752 25.252 95.9032 25.252C96.3359 25.252 96.6952 25.153 96.9812 24.955C97.2746 24.7497 97.4799 24.4783 97.5972 24.141H98.6752C98.5139 24.7203 98.1912 25.1933 97.7072 25.56C97.2232 25.9193 96.6219 26.099 95.9032 26.099C95.3312 26.099 94.8179 25.9707 94.3632 25.714C93.9159 25.4573 93.5639 25.0943 93.3072 24.625C93.0506 24.1483 92.9222 23.5983 92.9222 22.975C92.9222 22.3517 93.0469 21.8053 93.2962 21.336C93.5456 20.8667 93.8939 20.5073 94.3412 20.258C94.7959 20.0013 95.3166 19.873 95.9032 19.873C96.4752 19.873 96.9812 19.9977 97.4212 20.247C97.8612 20.4963 98.1986 20.841 98.4332 21.281C98.6752 21.7137 98.7962 22.205 98.7962 22.755ZM97.7622 22.546C97.7622 22.1647 97.6779 21.8383 97.5092 21.567C97.3406 21.2883 97.1096 21.0793 96.8162 20.94C96.5302 20.7933 96.2112 20.72 95.8592 20.72C95.3532 20.72 94.9206 20.8813 94.5612 21.204C94.2092 21.5267 94.0076 21.974 93.9562 22.546H97.7622ZM101.119 20.951C101.295 20.6063 101.544 20.3387 101.867 20.148C102.197 19.9573 102.596 19.862 103.066 19.862V20.896H102.802C101.68 20.896 101.119 21.5047 101.119 22.722V26H100.118V19.972H101.119V20.951Z" fill="white"></path>
</svg>
