<svg width="238" height="100" viewBox="0 0 238 100" fill="none" xmlns="http://www.w3.org/2000/svg">
<path d="M79.064 72.58C76.7053 72.58 74.598 72.116 72.742 71.188C70.9247 70.2213 69.4553 68.9453 68.334 67.36L73.032 63.068C73.6893 64.0733 74.5207 64.8467 75.526 65.388C76.5313 65.9293 77.6333 66.2 78.832 66.2C80.1467 66.2 81.268 65.9293 82.196 65.388C83.124 64.8467 83.8393 64.0733 84.342 63.068C84.8447 62.0627 85.096 60.864 85.096 59.472V31.4H91.766V58.95C91.766 61.6567 91.2247 64.0347 90.142 66.084C89.098 68.1333 87.6287 69.738 85.734 70.898C83.8393 72.0193 81.616 72.58 79.064 72.58ZM111.958 72.58C109.251 72.58 106.796 71.942 104.592 70.666C102.388 69.3513 100.629 67.592 99.3142 65.388C98.0382 63.184 97.4002 60.7287 97.4002 58.022C97.4002 55.3153 98.0382 52.8793 99.3142 50.714C100.629 48.5487 102.388 46.828 104.592 45.552C106.796 44.2373 109.251 43.58 111.958 43.58C114.703 43.58 117.178 44.218 119.382 45.494C121.586 46.77 123.326 48.51 124.602 50.714C125.917 52.8793 126.574 55.3153 126.574 58.022C126.574 60.7287 125.917 63.184 124.602 65.388C123.326 67.592 121.586 69.3513 119.382 70.666C117.178 71.942 114.703 72.58 111.958 72.58ZM111.958 66.432C113.543 66.432 114.935 66.084 116.134 65.388C117.371 64.6533 118.319 63.648 118.976 62.372C119.672 61.096 120.02 59.646 120.02 58.022C120.02 56.398 119.672 54.9673 118.976 53.73C118.28 52.4927 117.333 51.526 116.134 50.83C114.935 50.0953 113.543 49.728 111.958 49.728C110.411 49.728 109.019 50.0953 107.782 50.83C106.583 51.526 105.636 52.4927 104.94 53.73C104.283 54.9673 103.954 56.398 103.954 58.022C103.954 59.646 104.283 61.096 104.94 62.372C105.636 63.648 106.583 64.6533 107.782 65.388C109.019 66.084 110.411 66.432 111.958 66.432ZM146.786 72.58C144.659 72.58 142.764 72.1353 141.102 71.246C139.439 70.318 138.124 69.0613 137.158 67.476C136.23 65.8907 135.766 64.0927 135.766 62.082V54.078C135.766 52.0673 136.249 50.2693 137.216 48.684C138.182 47.0987 139.497 45.8613 141.16 44.972C142.822 44.044 144.698 43.58 146.786 43.58C149.299 43.58 151.561 44.2373 153.572 45.552C155.621 46.828 157.226 48.568 158.386 50.772C159.584 52.9373 160.184 55.3927 160.184 58.138C160.184 60.8447 159.584 63.3 158.386 65.504C157.226 67.6693 155.621 69.39 153.572 70.666C151.561 71.942 149.299 72.58 146.786 72.58ZM145.742 66.548C147.288 66.548 148.642 66.2 149.802 65.504C151 64.7693 151.928 63.764 152.586 62.488C153.282 61.212 153.63 59.7427 153.63 58.08C153.63 56.4173 153.282 54.948 152.586 53.672C151.928 52.396 151 51.41 149.802 50.714C148.642 49.9793 147.288 49.612 145.742 49.612C144.195 49.612 142.822 49.9793 141.624 50.714C140.425 51.41 139.497 52.396 138.84 53.672C138.182 54.948 137.854 56.4173 137.854 58.08C137.854 59.7427 138.182 61.212 138.84 62.488C139.497 63.764 140.425 64.7693 141.624 65.504C142.822 66.2 144.195 66.548 145.742 66.548ZM131.88 72V30.24H138.26V51.004L137.158 57.732L138.26 64.518V72H131.88ZM165.582 72V44.16H171.962V72H165.582ZM168.772 39.056C167.69 39.056 166.781 38.6887 166.046 37.954C165.35 37.2193 165.002 36.3107 165.002 35.228C165.002 34.1453 165.35 33.2367 166.046 32.502C166.781 31.7673 167.69 31.4 168.772 31.4C169.894 31.4 170.802 31.7673 171.498 32.502C172.194 33.2367 172.542 34.1453 172.542 35.228C172.542 36.3107 172.194 37.2193 171.498 37.954C170.802 38.6887 169.894 39.056 168.772 39.056ZM182.946 72V40.506C182.946 38.3793 183.41 36.504 184.338 34.88C185.305 33.256 186.619 31.98 188.282 31.052C189.983 30.124 191.936 29.66 194.14 29.66C195.841 29.66 197.291 29.95 198.49 30.53C199.689 31.11 200.81 31.9413 201.854 33.024L197.736 37.142C197.272 36.678 196.769 36.3107 196.228 36.04C195.687 35.7693 194.991 35.634 194.14 35.634C192.593 35.634 191.395 36.0593 190.544 36.91C189.732 37.722 189.326 38.9013 189.326 40.448V72H182.946ZM176.276 49.96V44.16H197.736V49.96H176.276ZM210.764 72.29L198.874 44.16H205.892L214.012 64.808H211.982L220.566 44.16H227.642L214.708 72.29H210.764ZM202.47 83.6L211.112 65.794L214.708 72.29L209.546 83.6H202.47Z" fill="#144029"/>
<path d="M6 45.1967C6 32.3855 16.3855 22 29.1967 22V22V54.0433C29.1967 66.8545 18.8112 77.24 6 77.24V77.24V45.1967Z" fill="#08BA5C"/>
<path d="M32.5616 34.6049C32.5616 27.6434 38.205 22 45.1665 22V22C52.128 22 57.7714 27.6434 57.7714 34.6049V35.3326C57.7714 42.2941 52.128 47.9375 45.1665 47.9375V47.9375C38.205 47.9375 32.5616 42.2941 32.5616 35.3326V34.6049Z" fill="#144029"/>
<path d="M32.5616 63.9066C32.5616 56.9452 38.205 51.3018 45.1665 51.3018V51.3018C52.128 51.3018 57.7714 56.9452 57.7714 63.9066V64.6344C57.7714 71.5959 52.128 77.2393 45.1665 77.2393V77.2393C38.205 77.2393 32.5616 71.5959 32.5616 64.6344V63.9066Z" fill="#9BE2BA"/>
</svg>
