<svg viewBox="0 0 40 40" class="css-nvgw6q"><title>Generic Agent Avatar</title><defs><linearGradient id="a" x1="50%" x2="50%" y1="0%" y2="100%"><stop offset="0%" stop-color="#F6F6F6"></stop><stop offset="100%" stop-color="#D2D2D2"></stop></linearGradient><linearGradient id="b" x1="50%" x2="50%" y1="0%" y2="100%"><stop offset="0%" stop-color="#E3E3E3"></stop><stop offset="100%" stop-color="#717171"></stop></linearGradient><linearGradient id="c" x1="50%" x2="50%" y1="0%" y2="100%"><stop offset="0%" stop-color="#F3F3F3"></stop><stop offset="100%" stop-color="#B2B2B2"></stop></linearGradient><linearGradient id="f" x1="50%" x2="50%" y1="0%" y2="100%"><stop offset="0%" stop-color="#A9A9A9"></stop><stop offset="100%" stop-color="#494949"></stop></linearGradient><linearGradient id="g" x1="50%" x2="50%" y1="0%" y2="75.566%"><stop offset="0%" stop-color="#D4D4D4"></stop><stop offset="100%" stop-color="#686868"></stop></linearGradient><linearGradient id="j" x1="50%" x2="50%" y1="0%" y2="85.678%"><stop offset="0%" stop-color="#E4E4E4"></stop><stop offset="100%" stop-color="#6A6A6A"></stop></linearGradient><linearGradient id="l" x1="50%" x2="50%" y1="0%" y2="74.314%"><stop offset="0%" stop-color="#FFF"></stop><stop offset="0%" stop-color="#FFF"></stop><stop offset="100%" stop-color="#FFF" stop-opacity="0"></stop></linearGradient><filter id="d" width="100%" height="100%" x="0%" y="0%" filterUnits="objectBoundingBox"><feGaussianBlur in="SourceGraphic" stdDeviation="0.444"></feGaussianBlur></filter><filter id="e" width="100%" height="100%" x="0%" y="0%" filterUnits="objectBoundingBox"><feGaussianBlur in="SourceGraphic" stdDeviation="0.444"></feGaussianBlur></filter><filter id="h" width="100%" height="100%" x="0%" y="0%" filterUnits="objectBoundingBox"><feGaussianBlur in="SourceGraphic" stdDeviation="0.089"></feGaussianBlur></filter><filter id="k" width="100%" height="100%" x="0%" y="0%" filterUnits="objectBoundingBox"><feGaussianBlur in="SourceGraphic" stdDeviation="0.444"></feGaussianBlur></filter><filter id="m" width="100%" height="100%" x="0%" y="0%" filterUnits="objectBoundingBox"><feGaussianBlur in="SourceGraphic" stdDeviation="0.444"></feGaussianBlur></filter><filter id="o" width="100%" height="100%" x="0%" y="0%" filterUnits="objectBoundingBox"><feGaussianBlur in="SourceGraphic" stdDeviation="0.222"></feGaussianBlur></filter><radialGradient id="p" cx="50%" cy="137.095%" r="137.095%" fx="50%" fy="137.095%" gradientTransform="matrix(0 -1 .48582 0 -.166 1.871)"><stop offset="0%" stop-color="#2D2C2C"></stop><stop offset="100%" stop-color="#C6C6C6" stop-opacity="0"></stop></radialGradient><path id="i" d="M21.557 6.999a15.941 15.941 0 0 1-10.778 4.175A15.942 15.942 0 0 1 0 6.999 11.586 11.586 0 0 1 7.44.108c.478.753 1.693 1.288 3.116 1.288 1.49 0 2.752-.587 3.179-1.396a11.581 11.581 0 0 1 7.822 6.999Z"></path></defs><g fill="none" fill-rule="evenodd" clip-rule="evenodd"><circle cx="20" cy="20" r="20" fill="url(#a)"></circle><circle cx="20.094" cy="16.047" r="7.158" fill="url(#b)"></circle><path fill="url(#c)" d="M20 10.222c2.569 0 4.828 1.779 5.778 4-.95 2.222-3.21 3.556-5.778 3.556-2.569 0-4.828-1.335-5.778-3.556.95-2.221 3.21-4 5.778-4Z" filter="url(#d)"></path><path fill="#FCFCFC" d="M20 10.667c1.675 0 3.171.763 4.16 1.96-1.25-.715-2.571-1.071-3.96-1.071-2.003 0-3.72.74-5.15 2.222l.12-.121.04-.08a5.393 5.393 0 0 1 4.79-2.91Z" filter="url(#e)"></path><path fill="#FCFCFC" d="M19.96 10.047c1.94.028 3.674 1.047 5.203 3.056l.001-.001a.089.089 0 0 1-.13.118c-1.75-1.517-3.475-2.275-5.174-2.275-1.698 0-3.299.757-4.804 2.272h.001a.089.089 0 0 1-.143-.103c1.296-2.075 2.977-3.097 5.046-3.067Z"></path><path fill="url(#f)" d="M20.094 25.59c6.102 0 11.313 3.819 13.373 9.197A19.928 19.928 0 0 1 20 40c-5.12 0-9.79-1.923-13.327-5.087 2.026-5.444 7.27-9.322 13.42-9.322Z"></path><path fill="url(#g)" d="M30.778 34.492A15.941 15.941 0 0 1 20 38.667 15.942 15.942 0 0 1 9.221 34.49a11.586 11.586 0 0 1 7.441-6.89c.478.753 1.693 1.288 3.116 1.288 1.49 0 2.752-.587 3.178-1.396a11.581 11.581 0 0 1 7.822 6.999Z" filter="url(#h)" opacity="0.524"></path><g opacity="0.624" transform="translate(9.222 27.493)"><mask id="n" fill="#fff"><use xlink:href="#i"></use></mask><use xlink:href="#i" fill="url(#j)" filter="url(#k)"></use><path fill="url(#l)" d="M13.735 0a11.581 11.581 0 0 1 7.822 6.999 16.08 16.08 0 0 1-1.324 1.084 3.783 3.783 0 0 0-.023-1.26l-.13-.331C18.93 3.647 17.36 1.305 14.334.507c-.354.672-1.638 1.27-3.288 1.329l-.212.004h-.055C9.054 1.814 7.7 1.2 7.335.507c-3.026.798-4.598 3.14-5.746 5.985l-.13.33c-.08.442-.085.862-.024 1.26C.975 7.746.533 7.383.112 7A11.581 11.581 0 0 1 7.934 0c.392.743 1.487 1.298 2.818 1.384l.082.004.083-.004c1.33-.086 2.426-.64 2.818-1.384Z" filter="url(#m)" mask="url(#n)"></path></g><path fill="#A8A8A8" d="M20.222 21.111c1.443 0 2.693.495 3.305 1.218a7.12 7.12 0 0 1-3.433.876 7.128 7.128 0 0 1-3.253-.78c.58-.775 1.875-1.314 3.381-1.314Z" filter="url(#o)"></path><path fill="url(#p)" d="M19.556 30.222c4.63 0 8.572 2.951 10.047 7.076A19.915 19.915 0 0 1 19.556 40c-3.663 0-7.095-.984-10.047-2.703 1.474-4.124 5.416-7.075 10.047-7.075Z"></path></g></svg>